<svg width="24" height="24" viewBox="0 0 24 24" fill="none" xmlns="http://www.w3.org/2000/svg">
<g id="cart-plus-alt">
<g id="Vector">
<path d="M17 16H9.78L9.28 14H18C18.2175 14.0001 18.4291 13.9292 18.6027 13.7982C18.7763 13.6672 18.9024 13.4832 18.962 13.274L19.435 11.619C18.9967 11.8655 18.5029 11.9966 18 12C17.2044 12 16.4413 11.6839 15.8787 11.1213C15.3161 10.5587 15 9.79565 15 9C14.2044 9 13.4413 8.68393 12.8787 8.12132C12.3161 7.55871 12 6.79565 12 6C12.0032 5.65855 12.0655 5.32024 12.184 5H6.77L6.175 2.745C6.11869 2.53148 5.99329 2.3426 5.81836 2.20783C5.64344 2.07307 5.42882 1.99999 5.208 2H3C2.73478 2 2.48043 2.10536 2.29289 2.29289C2.10536 2.48043 2 2.73478 2 3C2 3.26522 2.10536 3.51957 2.29289 3.70711C2.48043 3.89464 2.73478 4 3 4H4.438L5.038 6.255V6.274L7.038 13.274L7.784 16.26C7.29013 16.479 6.86456 16.8272 6.55222 17.268C6.23988 17.7088 6.05237 18.2258 6.00947 18.7643C5.96658 19.3028 6.0699 19.843 6.30853 20.3276C6.54715 20.8123 6.91223 21.2236 7.3652 21.5179C7.81818 21.8123 8.34224 21.9789 8.88206 22.0002C9.42188 22.0214 9.95741 21.8965 10.4321 21.6386C10.9068 21.3807 11.3031 20.9994 11.579 20.535C11.855 20.0706 12.0005 19.5402 12 19C11.9967 18.6586 11.9344 18.3203 11.816 18H14.184C14.0656 18.3203 14.0033 18.6586 14 19C14 19.5933 14.1759 20.1734 14.5056 20.6667C14.8352 21.1601 15.3038 21.5446 15.8519 21.7716C16.4001 21.9987 17.0033 22.0581 17.5853 21.9424C18.1672 21.8266 18.7018 21.5409 19.1213 21.1213C19.5409 20.7018 19.8266 20.1672 19.9424 19.5853C20.0581 19.0033 19.9987 18.4001 19.7716 17.8519C19.5446 17.3038 19.1601 16.8352 18.6667 16.5056C18.1734 16.1759 17.5933 16 17 16ZM9 20C8.80222 20 8.60888 19.9414 8.44443 19.8315C8.27998 19.7216 8.15181 19.5654 8.07612 19.3827C8.00043 19.2 7.98063 18.9989 8.01921 18.8049C8.0578 18.6109 8.15304 18.4327 8.29289 18.2929C8.43275 18.153 8.61093 18.0578 8.80491 18.0192C8.99889 17.9806 9.19996 18.0004 9.38268 18.0761C9.56541 18.1518 9.72159 18.28 9.83147 18.4444C9.94135 18.6089 10 18.8022 10 19C10 19.2652 9.89464 19.5196 9.70711 19.7071C9.51957 19.8946 9.26522 20 9 20ZM17 20C16.8022 20 16.6089 19.9414 16.4444 19.8315C16.28 19.7216 16.1518 19.5654 16.0761 19.3827C16.0004 19.2 15.9806 18.9989 16.0192 18.8049C16.0578 18.6109 16.153 18.4327 16.2929 18.2929C16.4327 18.153 16.6109 18.0578 16.8049 18.0192C16.9989 17.9806 17.2 18.0004 17.3827 18.0761C17.5654 18.1518 17.7216 18.28 17.8315 18.4444C17.9414 18.6089 18 18.8022 18 19C18 19.2652 17.8946 19.5196 17.7071 19.7071C17.5196 19.8946 17.2652 20 17 20Z" fill="#FD6905"/>
<path d="M21 5H19V3C19 2.73478 18.8946 2.48043 18.7071 2.29289C18.5196 2.10536 18.2652 2 18 2C17.7348 2 17.4804 2.10536 17.2929 2.29289C17.1054 2.48043 17 2.73478 17 3V5H15C14.7348 5 14.4804 5.10536 14.2929 5.29289C14.1054 5.48043 14 5.73478 14 6C14 6.26522 14.1054 6.51957 14.2929 6.70711C14.4804 6.89464 14.7348 7 15 7H17V9C17 9.26522 17.1054 9.51957 17.2929 9.70711C17.4804 9.89464 17.7348 10 18 10C18.2652 10 18.5196 9.89464 18.7071 9.70711C18.8946 9.51957 19 9.26522 19 9V7H21C21.2652 7 21.5196 6.89464 21.7071 6.70711C21.8946 6.51957 22 6.26522 22 6C22 5.73478 21.8946 5.48043 21.7071 5.29289C21.5196 5.10536 21.2652 5 21 5Z" fill="#FD6905"/>
</g>
</g>
</svg>
