<svg width="19" height="18" viewBox="0 0 19 18" fill="none" xmlns="http://www.w3.org/2000/svg">
<path id="Vector" d="M18.4309 6.77014C18.3523 6.51399 18.2061 6.28614 18.009 6.11276C17.8119 5.93938 17.572 5.8275 17.3167 5.78996L12.7708 5.10083L10.7377 0.803608C10.6238 0.562418 10.4474 0.359317 10.2286 0.217294C10.0097 0.0752714 9.75711 0 9.49936 0C9.24161 0 8.98901 0.0752714 8.77015 0.217294C8.55129 0.359317 8.37491 0.562418 8.26098 0.803608L6.2279 5.10083L1.68205 5.78996C1.42717 5.82875 1.18775 5.94111 0.99084 6.11435C0.79393 6.28759 0.647373 6.51482 0.567716 6.77036C0.488059 7.02591 0.478475 7.2996 0.540048 7.56052C0.60162 7.82145 0.731896 8.05922 0.916164 8.24699L4.20652 11.5922L3.42983 16.3147C3.38556 16.5798 3.41343 16.8525 3.5103 17.1019C3.60717 17.3512 3.76914 17.5672 3.97781 17.7254C4.18648 17.8835 4.43349 17.9774 4.69076 17.9964C4.94804 18.0154 5.20526 17.9588 5.43321 17.8329L9.49936 15.6031L13.5655 17.8329C13.7936 17.9576 14.0505 18.0134 14.3073 17.9939C14.5641 17.9743 14.8106 17.8804 15.0189 17.7225C15.2272 17.5646 15.3891 17.3492 15.4863 17.1004C15.5835 16.8517 15.6121 16.5795 15.5689 16.3147L14.7922 11.5922L18.0826 8.24605C18.2677 8.05908 18.3987 7.82143 18.4603 7.56037C18.5219 7.29932 18.5117 7.02543 18.4309 6.77014Z" fill="#1F2A37"/>
</svg>
