<svg width="27" height="27" viewBox="0 0 27 27" fill="none" xmlns="http://www.w3.org/2000/svg">
<g id="vuesax/linear/3d-rotate">
<g id="3d-rotate">
<g id="Group">
<g id="Group_2">
<path id="Vector" d="M7.81641 10.5322L13.5581 13.8581L19.2564 10.5539" stroke="#404040" stroke-width="1.5" stroke-linecap="round" stroke-linejoin="round"/>
<path id="Vector_2" d="M13.5576 19.7518V13.8477" stroke="#404040" stroke-width="1.5" stroke-linecap="round" stroke-linejoin="round"/>
</g>
<path id="Vector_3" d="M12.215 7.31434L8.74837 9.24267C7.96837 9.676 7.31836 10.7702 7.31836 11.6693V15.3418C7.31836 16.241 7.95753 17.3352 8.74837 17.7685L12.215 19.6968C12.9517 20.1085 14.165 20.1085 14.9125 19.6968L18.3792 17.7685C19.1592 17.3352 19.8092 16.241 19.8092 15.3418V11.6585C19.8092 10.7593 19.17 9.66517 18.3792 9.23183L14.9125 7.3035C14.165 6.89183 12.9517 6.89184 12.215 7.31434Z" stroke="#404040" stroke-width="1.5" stroke-linecap="round" stroke-linejoin="round"/>
</g>
<g id="Group_3">
<path id="Vector_4" d="M24.3919 16.75C24.3919 20.9425 21.0011 24.3333 16.8086 24.3333L17.9461 22.4375" stroke="#404040" stroke-width="1.5" stroke-linecap="round" stroke-linejoin="round"/>
<path id="Vector_5" d="M2.72559 10.2503C2.72559 6.05783 6.11642 2.66699 10.3089 2.66699L9.17143 4.56283" stroke="#404040" stroke-width="1.5" stroke-linecap="round" stroke-linejoin="round"/>
</g>
</g>
</g>
</svg>
