<svg width="13" height="13" viewBox="0 0 13 13" fill="none" xmlns="http://www.w3.org/2000/svg">
<g id="fluent-mdl2:media-add" clip-path="url(#clip0_1315_2422)">
<path id="Vector" d="M1.53906 2.88477H2.28906V3.63477H1.53906V2.88477ZM1.53906 4.38477H2.28906V5.13477H1.53906V4.38477ZM6.78906 2.88477H7.53906V3.63477H6.78906V2.88477ZM11.0723 8.13477H9.25586L10.1641 7.23242L11.0723 8.13477ZM8.28906 6.25977C8.28906 6.1582 8.32617 6.07031 8.40039 5.99609C8.47461 5.92188 8.5625 5.88477 8.66406 5.88477C8.76562 5.88477 8.85352 5.92188 8.92773 5.99609C9.00195 6.07031 9.03906 6.1582 9.03906 6.25977C9.03906 6.36133 9.00195 6.44922 8.92773 6.52344C8.85352 6.59766 8.76562 6.63477 8.66406 6.63477C8.5625 6.63477 8.47461 6.59766 8.40039 6.52344C8.32617 6.44922 8.28906 6.36133 8.28906 6.25977ZM12.0391 4.38477V9.63477H11.2891V5.13477H3.78906V8.35156L5.66406 6.48242L8.28906 9.10156L9.03906 8.35156V9.41797L8.82227 9.63477H7.75586L5.66406 7.53711L3.78906 9.41797V10.3848H7.53906V11.1348H3.03906V7.38477H0.0390625V0.634766H9.03906V4.38477H12.0391ZM8.28906 4.38477V1.38477H7.53906V2.13477H6.78906V1.38477H2.28906V2.13477H1.53906V1.38477H0.789062V6.63477H1.53906V5.88477H2.28906V6.63477H3.03906V4.38477H8.28906ZM10.5391 10.3848H12.0391V11.1348H10.5391V12.6348H9.78906V11.1348H8.28906V10.3848H9.78906V8.88477H10.5391V10.3848Z" fill="#E8ECEF"/>
</g>
<defs>
<clipPath id="clip0_1315_2422">
<rect width="12" height="12" fill="white" transform="translate(0.0390625 0.634766)"/>
</clipPath>
</defs>
</svg>
