<svg width="12" height="12" viewBox="0 0 12 12" fill="none" xmlns="http://www.w3.org/2000/svg">
<path id="Vector" d="M4.23529 0C3.81176 0 3.52941 0.24 3.52941 0.6V11.4C3.52941 11.76 3.81176 12 4.23529 12C4.65882 12 4.94118 11.76 4.94118 11.4V0.6C4.94118 0.24 4.65882 0 4.23529 0ZM0.705882 6C0.282353 6 0 6.24 0 6.6V11.4C0 11.76 0.282353 12 0.705882 12C1.12941 12 1.41176 11.76 1.41176 11.4V6.6C1.41176 6.24 1.12941 6 0.705882 6ZM7.76471 3.6C7.34118 3.6 7.05882 3.84 7.05882 4.2V11.4C7.05882 11.76 7.34118 12 7.76471 12C8.18824 12 8.47059 11.76 8.47059 11.4V4.2C8.47059 3.84 8.18824 3.6 7.76471 3.6ZM11.2941 8.4C10.8706 8.4 10.5882 8.64 10.5882 9V11.4C10.5882 11.76 10.8706 12 11.2941 12C11.7176 12 12 11.76 12 11.4V9C12 8.64 11.7176 8.4 11.2941 8.4Z" fill="#E8ECEF"/>
</svg>
