<svg width="20" height="20" viewBox="0 0 20 20" fill="none" xmlns="http://www.w3.org/2000/svg">
<g id="arrow-narrow-right">
<path id="Vector" fill-rule="evenodd" clip-rule="evenodd" d="M12.1629 5.63255C12.3448 5.45076 12.5914 5.34863 12.8485 5.34863C13.1056 5.34863 13.3522 5.45076 13.5341 5.63255L17.4129 9.51134C17.5947 9.69318 17.6968 9.93978 17.6968 10.1969C17.6968 10.454 17.5947 10.7006 17.4129 10.8825L13.5341 14.7613C13.3512 14.9379 13.1062 15.0357 12.852 15.0334C12.5977 15.0312 12.3545 14.9293 12.1747 14.7495C11.995 14.5697 11.893 14.3265 11.8908 14.0722C11.8886 13.818 11.9863 13.573 12.1629 13.3901L14.3864 11.1666H3.15154C2.89436 11.1666 2.64771 11.0644 2.46586 10.8826C2.284 10.7007 2.18184 10.4541 2.18184 10.1969C2.18184 9.93973 2.284 9.69308 2.46586 9.51123C2.64771 9.32938 2.89436 9.22721 3.15154 9.22721H14.3864L12.1629 7.0037C11.9811 6.82185 11.879 6.57525 11.879 6.31812C11.879 6.06099 11.9811 5.81439 12.1629 5.63255V5.63255Z" fill="white"/>
</g>
</svg>
