<svg width="46" height="45" viewBox="0 0 46 45" fill="none" xmlns="http://www.w3.org/2000/svg">
<g id="bell-active-outline">
<g id="Vector">
<path d="M35.8417 23.498V20.1229C35.841 17.3528 34.7911 14.6682 32.8701 12.5246C30.9492 10.3811 28.2755 8.91057 25.3028 8.36261V5.62504C25.3028 5.12775 25.0865 4.65083 24.7015 4.29919C24.3166 3.94755 23.7944 3.75 23.25 3.75C22.7056 3.75 22.1834 3.94755 21.7985 4.29919C21.4135 4.65083 21.1972 5.12775 21.1972 5.62504V8.36261C18.2245 8.91057 15.5508 10.3811 13.6299 12.5246C11.7089 14.6682 10.659 17.3528 10.6583 20.1229V23.0967C10.6585 23.2291 10.6743 23.3611 10.7055 23.4905H10.6583C10.628 25.0445 9.9315 26.5256 8.71844 27.6156C7.61657 28.6022 6.94468 29.9209 6.82784 31.3263C6.82784 32.3444 6.82784 35.4382 9.985 35.4382H14.5175C15.1125 37.1264 16.2785 38.5986 17.8477 39.643C19.4169 40.6873 21.3084 41.25 23.25 41.25C25.1916 41.25 27.0831 40.6873 28.6523 39.643C30.2215 38.5986 31.3875 37.1264 31.9825 35.4382H36.515C39.6722 35.4382 39.6722 32.3444 39.6722 31.3263C39.5548 29.9216 38.883 28.6036 37.7816 27.6174C36.57 26.5289 35.8736 25.05 35.8417 23.498ZM23.25 37.5008C22.4149 37.4999 21.5929 37.3112 20.8565 36.9515C20.1201 36.5918 19.492 36.0721 19.0275 35.4382H27.4725C27.008 36.0721 26.3799 36.5918 25.6435 36.9515C24.9071 37.3112 24.0851 37.4999 23.25 37.5008ZM35.5666 31.6882H10.9334C10.9334 31.5625 10.9334 31.4331 10.9334 31.3263C11.1516 30.8256 11.48 30.3713 11.8982 29.9912C13.7163 28.2341 14.7425 25.9155 14.7721 23.498V20.1229C14.7682 18.0257 15.6453 16.0071 17.2227 14.4833C18.8001 12.9594 20.9574 12.0465 23.25 11.9327C25.544 12.0446 27.7034 12.9568 29.2825 14.4808C30.8617 16.0049 31.74 18.0245 31.7362 20.1229V23.0967C31.7366 23.229 31.7518 23.3609 31.7813 23.4905H31.7362C31.7657 25.908 32.7919 28.2266 34.61 29.9837C35.0282 30.3638 35.3566 30.8181 35.5748 31.3188C35.5666 31.4331 35.5666 31.5625 35.5666 31.6882Z" fill="#7C3AED"/>
<path d="M8.60554 20.1229C8.6195 16.6211 10.0765 13.2526 12.6864 10.6877C13.0564 10.3219 13.2521 9.83689 13.2305 9.33932C13.209 8.84175 12.9719 8.37239 12.5715 8.03448C12.1711 7.69657 11.6401 7.51779 11.0953 7.53748C10.5506 7.55718 10.0368 7.77372 9.66682 8.13948C6.35544 11.398 4.51051 15.6769 4.5 20.1229C4.5 20.6202 4.71627 21.0971 5.10124 21.4487C5.48621 21.8004 6.00834 21.9979 6.55277 21.9979C7.0972 21.9979 7.61933 21.8004 8.0043 21.4487C8.38927 21.0971 8.60554 20.6202 8.60554 20.1229Z" fill="#7C3AED"/>
<path d="M36.8332 8.13948C36.65 7.95837 36.4296 7.812 36.1845 7.70871C35.9394 7.60542 35.6744 7.54723 35.4047 7.53748C35.1349 7.52773 34.8657 7.5666 34.6125 7.65188C34.3592 7.73715 34.1268 7.86716 33.9285 8.03448C33.7302 8.20179 33.57 8.40314 33.4569 8.62703C33.3438 8.85091 33.2801 9.09295 33.2695 9.33932C33.2588 9.58569 33.3013 9.83157 33.3947 10.0629C33.488 10.2943 33.6304 10.5066 33.8136 10.6877C36.4259 13.255 37.8831 16.6273 37.8945 20.1323C37.8945 20.6296 38.1107 21.1065 38.4957 21.4581C38.8807 21.8098 39.4028 22.0073 39.9472 22.0073C40.4917 22.0073 41.0138 21.8098 41.3988 21.4581C41.7837 21.1065 42 20.6296 42 20.1323C41.9921 15.6831 40.147 11.4004 36.8332 8.13948Z" fill="#7C3AED"/>
</g>
</g>
</svg>
