<svg width="24" height="24" viewBox="0 0 24 24" fill="none" xmlns="http://www.w3.org/2000/svg">
<g id="cart">
<path id="Vector" d="M18.8419 13.9985C19.0708 13.9986 19.2935 13.9277 19.4762 13.7967C19.659 13.6657 19.7918 13.4817 19.8545 13.2726L21.9597 6.27346C22.0043 6.12466 22.012 5.96806 21.9821 5.81596C21.9522 5.66387 21.8856 5.52045 21.7874 5.39697C21.6893 5.2735 21.5623 5.17335 21.4165 5.1044C21.2707 5.03545 21.11 4.99958 20.9471 4.99962H7.02098L6.39467 2.74491C6.3354 2.53141 6.2034 2.34256 6.01927 2.20781C5.83514 2.07306 5.60923 1.99999 5.37679 2H3.05262C2.77345 2 2.50571 2.10534 2.3083 2.29286C2.1109 2.48037 2 2.73469 2 2.99987C2 3.26506 2.1109 3.51938 2.3083 3.70689C2.50571 3.89441 2.77345 3.99975 3.05262 3.99975H4.56628L5.19785 6.25447V6.26447V6.27346L7.30308 13.2726L8.08833 16.2582C7.56848 16.4772 7.12052 16.8254 6.79175 17.2661C6.46297 17.7069 6.26559 18.2237 6.22044 18.7622C6.17529 19.3007 6.28404 19.8407 6.53523 20.3253C6.78641 20.81 7.17069 21.2211 7.6475 21.5155C8.12431 21.8099 8.67595 21.9764 9.24417 21.9977C9.81239 22.0189 10.3761 21.894 10.8758 21.6362C11.3755 21.3783 11.7926 20.997 12.0831 20.5327C12.3736 20.0683 12.5266 19.538 12.5262 18.9979C12.5227 18.6565 12.4572 18.3182 12.3325 17.998H14.8251C14.7004 18.3182 14.6349 18.6565 14.6314 18.9979C14.6314 19.5911 14.8166 20.1711 15.1636 20.6644C15.5106 21.1577 16.0038 21.5421 16.5808 21.7692C17.1578 21.9962 17.7928 22.0556 18.4053 21.9399C19.0179 21.8241 19.5806 21.5384 20.0222 21.1189C20.4638 20.6994 20.7646 20.1649 20.8864 19.5831C21.0083 19.0012 20.9457 18.3981 20.7067 17.85C20.4677 17.3019 20.063 16.8334 19.5437 16.5038C19.0243 16.1742 18.4138 15.9982 17.7892 15.9982H10.1894L9.66305 13.9985H18.8419ZM10.4209 18.9979C10.4209 19.1956 10.3592 19.3889 10.2435 19.5534C10.1279 19.7178 9.96348 19.846 9.77114 19.9216C9.57879 19.9973 9.36715 20.0171 9.16296 19.9785C8.95877 19.94 8.77121 19.8447 8.624 19.7049C8.47679 19.5651 8.37654 19.3869 8.33593 19.1929C8.29531 18.999 8.31615 18.7979 8.39583 18.6152C8.4755 18.4325 8.61041 18.2764 8.78351 18.1665C8.95662 18.0566 9.16013 17.998 9.36832 17.998C9.64749 17.998 9.91522 18.1033 10.1126 18.2909C10.31 18.4784 10.4209 18.7327 10.4209 18.9979ZM17.7892 19.9977C17.5811 19.9977 17.3775 19.9391 17.2044 19.8292C17.0313 19.7194 16.8964 19.5632 16.8168 19.3805C16.7371 19.1978 16.7162 18.9968 16.7569 18.8028C16.7975 18.6088 16.8977 18.4307 17.0449 18.2909C17.1921 18.151 17.3797 18.0558 17.5839 18.0172C17.7881 17.9786 17.9997 17.9984 18.1921 18.0741C18.3844 18.1498 18.5488 18.2779 18.6645 18.4424C18.7801 18.6068 18.8419 18.8001 18.8419 18.9979C18.8419 19.2631 18.731 19.5174 18.5336 19.7049C18.3362 19.8924 18.0684 19.9977 17.7892 19.9977Z" fill="#FCFAFD"/>
</g>
</svg>
