<svg width="30" height="30" viewBox="0 0 30 30" fill="none" xmlns="http://www.w3.org/2000/svg">
<path d="M25.1815 19.184C25.7244 17.8734 26.0038 16.4686 26.0038 15.05C26.0038 12.1849 24.8657 9.43722 22.8398 7.41132C20.8139 5.38542 18.0662 4.24728 15.2011 4.24728C12.3361 4.24728 9.58837 5.38542 7.56248 7.41132C5.53658 9.43722 4.39844 12.1849 4.39844 15.05C4.39844 16.4686 4.67786 17.8734 5.22074 19.184C5.76363 20.4946 6.55935 21.6855 7.56248 22.6886C8.5656 23.6918 9.75648 24.4875 11.0671 25.0304C12.3778 25.5733 13.7825 25.8527 15.2011 25.8527C16.6198 25.8527 18.0245 25.5733 19.3352 25.0304C20.6458 24.4875 21.8367 23.6918 22.8398 22.6886C23.8429 21.6855 24.6386 20.4946 25.1815 19.184Z" fill="white"/>
<path d="M11.6002 15.05L14.0008 17.4506L18.802 12.6494M26.0038 15.05C26.0038 16.4686 25.7244 17.8734 25.1815 19.184C24.6386 20.4946 23.8429 21.6855 22.8398 22.6886C21.8367 23.6918 20.6458 24.4875 19.3352 25.0304C18.0245 25.5733 16.6198 25.8527 15.2011 25.8527C13.7825 25.8527 12.3778 25.5733 11.0671 25.0304C9.75648 24.4875 8.5656 23.6918 7.56248 22.6886C6.55935 21.6855 5.76363 20.4946 5.22074 19.184C4.67786 17.8734 4.39844 16.4686 4.39844 15.05C4.39844 12.1849 5.53658 9.43722 7.56248 7.41132C9.58837 5.38542 12.3361 4.24728 15.2011 4.24728C18.0662 4.24728 20.8139 5.38542 22.8398 7.41132C24.8657 9.43722 26.0038 12.1849 26.0038 15.05Z" stroke="#FD6905" stroke-width="3.6009" stroke-linecap="round" stroke-linejoin="round"/>
</svg>
