<svg width="27" height="25" viewBox="0 0 27 25" fill="none" xmlns="http://www.w3.org/2000/svg">
<g id="vuesax/linear/group">
<g id="group">
<path id="Vector" d="M13.5582 14.5H14.6415C15.8332 14.5 16.8082 13.6 16.8082 12.5V2.5H7.05817C5.43317 2.5 4.01401 3.32999 3.27734 4.54999" stroke="#404040" stroke-width="1.5" stroke-linecap="round" stroke-linejoin="round"/>
<path id="Vector_2" d="M2.72559 17.5C2.72559 19.16 4.17725 20.5 5.97559 20.5H7.05892C7.05892 19.4 8.03392 18.5 9.22559 18.5C10.4173 18.5 11.3923 19.4 11.3923 20.5H15.7256C15.7256 19.4 16.7006 18.5 17.8923 18.5C19.0839 18.5 20.0589 19.4 20.0589 20.5H21.1423C22.9406 20.5 24.3923 19.16 24.3923 17.5V14.5H21.1423C20.5464 14.5 20.0589 14.05 20.0589 13.5V10.5C20.0589 9.95 20.5464 9.5 21.1423 9.5H22.5397L20.6873 6.51001C20.2973 5.89001 19.5823 5.5 18.8023 5.5H16.8089V12.5C16.8089 13.6 15.8339 14.5 14.6423 14.5H13.5589" stroke="#404040" stroke-width="1.5" stroke-linecap="round" stroke-linejoin="round"/>
<path id="Vector_3" d="M9.22526 22.5C10.4219 22.5 11.3919 21.6046 11.3919 20.5C11.3919 19.3954 10.4219 18.5 9.22526 18.5C8.02864 18.5 7.05859 19.3954 7.05859 20.5C7.05859 21.6046 8.02864 22.5 9.22526 22.5Z" stroke="#404040" stroke-width="1.5" stroke-linecap="round" stroke-linejoin="round"/>
<path id="Vector_4" d="M17.8923 22.5C19.0889 22.5 20.0589 21.6046 20.0589 20.5C20.0589 19.3954 19.0889 18.5 17.8923 18.5C16.6956 18.5 15.7256 19.3954 15.7256 20.5C15.7256 21.6046 16.6956 22.5 17.8923 22.5Z" stroke="#404040" stroke-width="1.5" stroke-linecap="round" stroke-linejoin="round"/>
<path id="Vector_5" d="M24.3919 12.5V14.5H21.1419C20.5461 14.5 20.0586 14.05 20.0586 13.5V10.5C20.0586 9.95 20.5461 9.5 21.1419 9.5H22.5394L24.3919 12.5Z" stroke="#404040" stroke-width="1.5" stroke-linecap="round" stroke-linejoin="round"/>
<path id="Vector_6" d="M2.72559 8.5H9.22559" stroke="#404040" stroke-width="1.5" stroke-linecap="round" stroke-linejoin="round"/>
<path id="Vector_7" d="M2.72559 11.5H7.05892" stroke="#404040" stroke-width="1.5" stroke-linecap="round" stroke-linejoin="round"/>
<path id="Vector_8" d="M2.72559 14.5H4.89225" stroke="#404040" stroke-width="1.5" stroke-linecap="round" stroke-linejoin="round"/>
</g>
</g>
</svg>
