<svg width="69" height="69" viewBox="0 0 69 69" fill="none" xmlns="http://www.w3.org/2000/svg">
<g id="Group">
<path id="Vector" d="M34.5 69C53.5538 69 69 53.5538 69 34.5C69 15.4462 53.5538 0 34.5 0C15.4462 0 0 15.4462 0 34.5C0 53.5538 15.4462 69 34.5 69Z" fill="#FD6905"/>
<path id="Vector_2" d="M25.6846 50.0636L43.4243 67.8033C58.1167 63.8853 69 50.4989 69 34.5005V33.521L55.0694 20.6787L25.6846 50.0636Z" fill="#FD6905"/>
<path id="Vector_3" d="M35.3708 42.2267C36.8944 43.7503 36.8944 46.3623 35.3708 47.886L32.2146 51.0421C30.691 52.5658 28.079 52.5658 26.5553 51.0421L12.7336 37.1115C11.2099 35.5879 11.2099 32.9759 12.7336 31.4522L15.8897 28.2961C17.4134 26.7724 20.0254 26.7724 21.549 28.2961L35.3708 42.2267Z" fill="white"/>
<path id="Vector_4" d="M47.4512 18.175C48.9749 16.6513 51.5868 16.6513 53.1105 18.175L56.2667 21.3311C57.7903 22.8548 57.7903 25.4668 56.2667 26.9904L32.3234 50.8248C30.7998 52.3485 28.1878 52.3485 26.6641 50.8248L23.508 47.6687C21.9843 46.145 21.9843 43.533 23.508 42.0093L47.4512 18.175Z" fill="white"/>
</g>
</svg>
