<svg width="61" height="60" viewBox="0 0 61 60" fill="none" xmlns="http://www.w3.org/2000/svg">
<g id="guarantee" clip-path="url(#clip0_615_2138)">
<g id="Group">
<path id="Vector" d="M57.286 21.2612C56.4943 18.8097 56.8318 15.1296 54.774 12.2882C52.7 9.42438 49.0929 8.61039 47.056 7.1207C45.0406 5.64672 43.1656 2.43918 39.7755 1.33293C36.481 0.257852 33.1121 1.71672 30.5 1.71672C27.8882 1.71672 24.5196 0.2575 21.2245 1.33281C17.835 2.43883 15.9584 5.64707 13.9443 7.12035C11.9097 8.60828 8.29988 9.42449 6.22625 12.2879C4.1702 15.127 4.5043 18.8154 3.71398 21.2611C2.96187 23.5888 0.5 26.3825 0.5 30.0003C0.5 33.6203 2.95906 36.4032 3.71398 38.7393C4.5057 41.1909 4.1682 44.8709 6.22602 47.7123C8.29988 50.5763 11.9069 51.3902 13.944 52.88C15.959 54.3537 17.8344 57.5615 21.2245 58.6676C24.5168 59.742 27.8909 58.2838 30.5 58.2838C33.1054 58.2838 36.4875 59.7405 39.7755 58.6677C43.1652 57.5617 45.0405 54.3542 47.0557 52.8802C49.0903 51.3923 52.7001 50.5761 54.7738 47.7127C56.8299 44.8735 56.4956 41.1854 57.286 38.7394C58.0381 36.4116 60.5 33.618 60.5 30.0003C60.5 26.3805 58.0415 23.5984 57.286 21.2612ZM52.8257 37.298C51.9029 40.1545 52.1446 43.3512 50.9775 44.963C49.7946 46.5962 46.6869 47.3423 44.2889 49.0963C41.9171 50.8308 40.2548 53.5804 38.3214 54.2112C36.4924 54.8082 33.5116 53.5961 30.5001 53.5961C27.4666 53.5961 24.5165 54.8107 22.6787 54.2112C20.7455 53.5804 19.0856 50.8327 16.7113 49.0962C14.3274 47.3528 11.202 46.5914 10.0225 44.9628C8.8591 43.3564 9.09172 40.1375 8.17449 37.2981C7.27543 34.5162 5.1875 32.1074 5.1875 30.0003C5.1875 27.891 7.27355 25.4905 8.17426 22.7025C9.09711 19.8462 8.85535 16.6492 10.0225 15.0375C11.2047 13.4054 14.3148 12.6569 16.7113 10.9042C19.0905 9.1641 20.7424 6.42109 22.6784 5.78934C24.506 5.19309 27.4965 6.40445 30.4999 6.40445C33.5389 6.40445 36.4816 5.18898 38.3213 5.78934C40.2542 6.42004 41.9156 9.16879 44.2889 10.9043C46.6723 12.6477 49.798 13.4091 50.9775 15.0377C52.1411 16.6444 51.9072 19.86 52.8255 22.7023V22.7024C53.7246 25.4843 55.8125 27.8931 55.8125 30.0003C55.8125 32.1095 53.7264 34.51 52.8257 37.298ZM41.298 22.4774C42.2134 23.3928 42.2134 24.8767 41.298 25.792L29.5668 37.5231C28.6515 38.4385 27.1674 38.4384 26.2522 37.5231L19.7021 30.973C18.7868 30.0577 18.7866 28.5737 19.702 27.6585C20.6173 26.7433 22.1015 26.7432 23.0165 27.6585L27.9095 32.5513L37.9832 22.4775C38.8986 21.5622 40.3827 21.5622 41.298 22.4774Z" fill="#242424"/>
</g>
</g>
<defs>
<clipPath id="clip0_615_2138">
<rect width="60" height="60" fill="white" transform="translate(0.5)"/>
</clipPath>
</defs>
</svg>
