<svg width="25" height="25" viewBox="0 0 25 25" fill="none" xmlns="http://www.w3.org/2000/svg">
<g id="search-outline">
<g id="Vector">
<path d="M7.04116 10.4074C7.08704 8.98412 7.55394 7.60638 8.38282 6.44844C9.21171 5.29049 10.3653 4.40435 11.6978 3.90206C13.0303 3.39977 14.4819 3.3039 15.8689 3.62657C17.2558 3.94924 18.516 4.67596 19.49 5.71483C20.4639 6.75369 21.108 8.05805 21.3407 9.46296C21.5733 10.8679 21.3842 12.3102 20.7971 13.6076C20.2101 14.905 19.2515 15.9992 18.0426 16.7518C16.8337 17.5044 15.4287 17.8816 14.0055 17.8357C12.0976 17.7721 10.2929 16.9543 8.98731 15.5617C7.6817 14.1691 6.9818 12.3154 7.04116 10.4074ZM19.6346 10.8134C19.669 9.74588 19.3861 8.69218 18.8217 7.78548C18.2572 6.87879 17.4366 6.15984 16.4636 5.71955C15.4905 5.27925 14.4088 5.13739 13.3551 5.31189C12.3014 5.4864 11.3232 5.96944 10.544 6.69993C9.76491 7.43042 9.21987 8.37555 8.97787 9.4158C8.73587 10.4561 8.80777 11.5447 9.18449 12.5441C9.5612 13.5435 10.2258 14.4087 11.0942 15.0304C11.9627 15.6521 12.996 16.0022 14.0634 16.0366C15.4945 16.0813 16.8848 15.5565 17.9293 14.5772C18.9737 13.598 19.5871 12.2443 19.6346 10.8134Z" fill="#1F2A37"/>
<path d="M3.12407 20.1864C3.13181 19.9478 3.23399 19.7221 3.40813 19.5589L7.12225 16.0767C7.29718 15.9183 7.52733 15.835 7.76312 15.8446C7.99891 15.8543 8.22147 15.9562 8.38288 16.1283C8.54428 16.3005 8.63161 16.5292 8.62606 16.7651C8.6205 17.001 8.52251 17.2253 8.35319 17.3897L4.63907 20.8719C4.50922 20.9936 4.34619 21.0741 4.17061 21.1031C3.99502 21.1322 3.81476 21.1085 3.65261 21.0352C3.49046 20.9618 3.3537 20.842 3.25962 20.6909C3.16555 20.5399 3.11837 20.3643 3.12407 20.1864Z" fill="#1F2A37"/>
</g>
</g>
</svg>
