<svg width="179" height="184" viewBox="0 0 179 184" fill="none" xmlns="http://www.w3.org/2000/svg">
<g id="Layer 2">
<g id="Layer 1">
<path id="Vector" d="M149.357 183.791H0L15.1486 47.0583H134.208L136.619 69.8722L149.357 183.791Z" fill="#0C323A"/>
<path id="Vector_2" d="M76.7081 91.2556H159.443L169.971 183.791H66.1805L76.7081 91.2556Z" fill="#0C323A"/>
<path id="Vector_3" d="M84.9855 91.2556H167.72L178.248 183.791H74.4578L84.9855 91.2556Z" fill="#CB412A"/>
<path id="Vector_4" d="M106.805 63.2088C106.016 63.2088 105.26 62.9153 104.702 62.3929C104.144 61.8704 103.831 61.1618 103.831 60.423V32.8656C103.977 29.1935 103.33 25.5317 101.931 22.099C100.532 18.6663 98.4076 15.5332 95.6862 12.8871C92.9648 10.241 89.7019 8.1362 86.0924 6.69855C82.483 5.26091 78.6012 4.51993 74.6791 4.51993C70.7571 4.51993 66.8753 5.26091 63.2658 6.69855C59.6564 8.1362 56.3935 10.241 53.6721 12.8871C50.9507 15.5332 48.8268 18.6663 47.4273 22.099C46.0278 25.5317 45.3815 29.1935 45.5271 32.8656V60.4606C45.5758 60.8511 45.5357 61.2468 45.4095 61.6217C45.2833 61.9967 45.0739 62.3423 44.7949 62.636C44.5159 62.9297 44.1738 63.1647 43.791 63.3256C43.4081 63.4866 42.9933 63.5698 42.5737 63.5698C42.1541 63.5698 41.7392 63.4866 41.3564 63.3256C40.9736 63.1647 40.6314 62.9297 40.3525 62.636C40.0735 62.3423 39.8641 61.9967 39.7379 61.6217C39.6117 61.2468 39.5716 60.8511 39.6203 60.4606V32.8656C39.6203 24.1491 43.3161 15.7896 49.8947 9.62616C56.4733 3.46267 65.3957 6.10352e-05 74.6992 6.10352e-05C84.0027 6.10352e-05 92.9252 3.46267 99.5038 9.62616C106.082 15.7896 109.778 24.1491 109.778 32.8656V60.4606C109.768 61.1929 109.45 61.8919 108.893 62.4062C108.337 62.9206 107.586 63.2089 106.805 63.2088ZM126.373 146.822C123.466 146.822 120.587 146.286 117.901 145.243C115.214 144.201 112.774 142.673 110.718 140.747C108.662 138.82 107.031 136.534 105.918 134.017C104.806 131.5 104.233 128.803 104.233 126.079V108.159C104.184 107.769 104.224 107.373 104.351 106.998C104.477 106.623 104.686 106.277 104.965 105.984C105.244 105.69 105.586 105.455 105.969 105.294C106.352 105.133 106.767 105.05 107.186 105.05C107.606 105.05 108.021 105.133 108.404 105.294C108.787 105.455 109.129 105.69 109.408 105.984C109.687 106.277 109.896 106.623 110.022 106.998C110.148 107.373 110.188 107.769 110.14 108.159V126.116C110.14 130.145 111.848 134.009 114.889 136.858C117.929 139.706 122.053 141.307 126.353 141.307C130.653 141.307 134.777 139.706 137.818 136.858C140.858 134.009 142.567 130.145 142.567 126.116V108.159C142.651 107.481 142.999 106.855 143.543 106.401C144.088 105.947 144.791 105.696 145.52 105.696C146.249 105.696 146.952 105.947 147.497 106.401C148.041 106.855 148.389 107.481 148.473 108.159V126.116C148.463 131.605 146.131 136.866 141.989 140.747C137.846 144.627 132.231 146.812 126.373 146.822Z" fill="black"/>
</g>
</g>
</svg>
