<svg width="45" height="45" viewBox="0 0 45 45" fill="none" xmlns="http://www.w3.org/2000/svg">
<g id="u:shopping-bag">
<path id="Vector" d="M35.625 13.125H30V11.25C30 9.26088 29.2098 7.35322 27.8033 5.9467C26.3968 4.54018 24.4891 3.75 22.5 3.75C20.5109 3.75 18.6032 4.54018 17.1967 5.9467C15.7902 7.35322 15 9.26088 15 11.25V13.125H9.375C8.87772 13.125 8.40081 13.3225 8.04918 13.6742C7.69754 14.0258 7.5 14.5027 7.5 15V35.625C7.5 37.1168 8.09263 38.5476 9.14752 39.6025C10.2024 40.6574 11.6332 41.25 13.125 41.25H31.875C33.3668 41.25 34.7976 40.6574 35.8525 39.6025C36.9074 38.5476 37.5 37.1168 37.5 35.625V15C37.5 14.5027 37.3025 14.0258 36.9508 13.6742C36.5992 13.3225 36.1223 13.125 35.625 13.125ZM18.75 11.25C18.75 10.2554 19.1451 9.30161 19.8484 8.59835C20.5516 7.89509 21.5054 7.5 22.5 7.5C23.4946 7.5 24.4484 7.89509 25.1516 8.59835C25.8549 9.30161 26.25 10.2554 26.25 11.25V13.125H18.75V11.25ZM33.75 35.625C33.75 36.1223 33.5525 36.5992 33.2008 36.9508C32.8492 37.3025 32.3723 37.5 31.875 37.5H13.125C12.6277 37.5 12.1508 37.3025 11.7992 36.9508C11.4475 36.5992 11.25 36.1223 11.25 35.625V16.875H15V18.75C15 19.2473 15.1975 19.7242 15.5492 20.0758C15.9008 20.4275 16.3777 20.625 16.875 20.625C17.3723 20.625 17.8492 20.4275 18.2008 20.0758C18.5525 19.7242 18.75 19.2473 18.75 18.75V16.875H26.25V18.75C26.25 19.2473 26.4475 19.7242 26.7992 20.0758C27.1508 20.4275 27.6277 20.625 28.125 20.625C28.6223 20.625 29.0992 20.4275 29.4508 20.0758C29.8025 19.7242 30 19.2473 30 18.75V16.875H33.75V35.625Z" fill="#EA580C"/>
</g>
</svg>
