<svg width="46" height="45" viewBox="0 0 46 45" fill="none" xmlns="http://www.w3.org/2000/svg">
<g id="u:users-alt">
<path id="Vector" d="M23.5625 22.9125C24.563 22.0465 25.3654 20.9754 25.9154 19.7719C26.4654 18.5684 26.75 17.2607 26.75 15.9375C26.75 13.4511 25.7623 11.0665 24.0041 9.30837C22.246 7.55022 19.8614 6.5625 17.375 6.5625C14.8886 6.5625 12.504 7.55022 10.7459 9.30837C8.98772 11.0665 8 13.4511 8 15.9375C7.99999 17.2607 8.28463 18.5684 8.83461 19.7719C9.38459 20.9754 10.187 22.0465 11.1875 22.9125C8.56276 24.101 6.33587 26.0204 4.77309 28.441C3.2103 30.8617 2.37776 33.6812 2.375 36.5625C2.375 37.0598 2.57254 37.5367 2.92417 37.8883C3.27581 38.24 3.75272 38.4375 4.25 38.4375C4.74728 38.4375 5.22419 38.24 5.57583 37.8883C5.92746 37.5367 6.125 37.0598 6.125 36.5625C6.125 33.5788 7.31026 30.7173 9.42005 28.6075C11.5298 26.4978 14.3913 25.3125 17.375 25.3125C20.3587 25.3125 23.2202 26.4978 25.33 28.6075C27.4397 30.7173 28.625 33.5788 28.625 36.5625C28.625 37.0598 28.8225 37.5367 29.1742 37.8883C29.5258 38.24 30.0027 38.4375 30.5 38.4375C30.9973 38.4375 31.4742 38.24 31.8258 37.8883C32.1775 37.5367 32.375 37.0598 32.375 36.5625C32.3722 33.6812 31.5397 30.8617 29.9769 28.441C28.4141 26.0204 26.1872 24.101 23.5625 22.9125ZM17.375 21.5625C16.2625 21.5625 15.1749 21.2326 14.2499 20.6145C13.3249 19.9964 12.6039 19.1179 12.1782 18.0901C11.7524 17.0623 11.641 15.9313 11.8581 14.8401C12.0751 13.749 12.6109 12.7467 13.3975 11.96C14.1842 11.1734 15.1865 10.6376 16.2776 10.4206C17.3688 10.2035 18.4998 10.3149 19.5276 10.7407C20.5554 11.1664 21.4339 11.8874 22.052 12.8124C22.6701 13.7374 23 14.825 23 15.9375C23 17.4293 22.4074 18.8601 21.3525 19.915C20.2976 20.9699 18.8668 21.5625 17.375 21.5625ZM35.6375 22.1625C36.8374 20.8112 37.6213 19.142 37.8946 17.3556C38.168 15.5693 37.9192 13.742 37.1783 12.0938C36.4374 10.4455 35.2359 9.04649 33.7184 8.06517C32.2009 7.08384 30.4321 6.56202 28.625 6.5625C28.1277 6.5625 27.6508 6.76004 27.2992 7.11168C26.9475 7.46331 26.75 7.94022 26.75 8.4375C26.75 8.93478 26.9475 9.41169 27.2992 9.76333C27.6508 10.115 28.1277 10.3125 28.625 10.3125C30.1168 10.3125 31.5476 10.9051 32.6025 11.96C33.6574 13.0149 34.25 14.4457 34.25 15.9375C34.2473 16.9223 33.9862 17.8892 33.4926 18.7414C32.9991 19.5936 32.2904 20.3013 31.4375 20.7938C31.1595 20.9541 30.9273 21.1831 30.7632 21.4589C30.599 21.7347 30.5084 22.0479 30.5 22.3688C30.4922 22.6871 30.5655 23.0021 30.7131 23.2842C30.8607 23.5663 31.0778 23.8062 31.3438 23.9813L32.075 24.4688L32.3187 24.6C34.5789 25.672 36.4856 27.3675 37.8143 29.4868C39.1431 31.6062 39.8385 34.0611 39.8187 36.5625C39.8187 37.0598 40.0163 37.5367 40.3679 37.8883C40.7196 38.24 41.1965 38.4375 41.6937 38.4375C42.191 38.4375 42.6679 38.24 43.0196 37.8883C43.3712 37.5367 43.5687 37.0598 43.5687 36.5625C43.5841 33.6852 42.8634 30.8517 41.4753 28.3314C40.0871 25.811 38.0775 23.6875 35.6375 22.1625Z" fill="#059669"/>
</g>
</svg>
