<svg width="20" height="20" viewBox="0 0 20 20" fill="none" xmlns="http://www.w3.org/2000/svg">
<path id="Vector" d="M10 10C8.625 10 7.44792 9.51042 6.46875 8.53125C5.48958 7.55208 5 6.375 5 5C5 3.625 5.48958 2.44792 6.46875 1.46875C7.44792 0.489584 8.625 0 10 0C11.375 0 12.5521 0.489584 13.5312 1.46875C14.5104 2.44792 15 3.625 15 5C15 6.375 14.5104 7.55208 13.5312 8.53125C12.5521 9.51042 11.375 10 10 10ZM0 20V16.5C0 15.7917 0.1825 15.1404 0.5475 14.5463C0.9125 13.9521 1.39667 13.4992 2 13.1875C3.29167 12.5417 4.60417 12.0571 5.9375 11.7338C7.27083 11.4104 8.625 11.2492 10 11.25C11.375 11.25 12.7292 11.4117 14.0625 11.735C15.3958 12.0583 16.7083 12.5425 18 13.1875C18.6042 13.5 19.0887 13.9533 19.4538 14.5475C19.8188 15.1417 20.0008 15.7925 20 16.5V20H0Z" fill="#FCFAFD"/>
</svg>
